<?xml version="1.0" standalone="no"?>
<!DOCTYPE svg PUBLIC "-//W3C//DTD SVG 20010904//EN"
 "http://www.w3.org/TR/2001/REC-SVG-20010904/DTD/svg10.dtd">
<svg version="1.0" xmlns="http://www.w3.org/2000/svg"
 width="512.000000pt" height="512.000000pt" viewBox="0 0 512.000000 512.000000"
 preserveAspectRatio="xMidYMid meet">
<metadata>
Created by potrace 1.11, written by Peter Selinger 2001-2013
</metadata>
<g transform="translate(0.000000,512.000000) scale(0.100000,-0.100000)"
fill="#000000" stroke="none">
<path d="M1817 4009 c-43 -10 -119 -40 -169 -65 -168 -88 -332 -274 -407 -464
-39 -99 -316 -1382 -327 -1515 -14 -165 35 -369 124 -520 58 -98 183 -226 272
-278 36 -21 101 -50 145 -64 71 -24 95 -27 215 -27 120 0 144 3 215 27 206 69
376 214 487 417 53 96 84 192 132 418 l43 204 -104 481 c-56 265 -103 486
-103 491 0 33 -23 -67 -144 -636 -75 -351 -145 -662 -156 -692 -47 -123 -132
-221 -240 -274 -75 -37 -181 -38 -253 -3 -149 73 -246 281 -217 465 6 37 71
351 145 696 123 579 136 635 171 702 48 91 130 175 209 214 51 25 71 29 135
28 94 -1 152 -26 226 -101 104 -103 106 -110 295 -991 168 -785 189 -873 237
-967 120 -239 337 -419 568 -470 103 -23 271 -16 364 15 298 100 498 365 540
716 15 121 1 275 -31 341 -72 150 -296 148 -369 -3 -20 -40 -21 -54 -15 -163
11 -187 -28 -315 -128 -419 -39 -41 -117 -79 -179 -88 -147 -20 -328 116 -396
299 -11 29 -91 381 -177 783 -162 757 -176 815 -224 932 -91 220 -225 373
-406 463 -141 70 -318 88 -478 48z"/>
</g>
</svg>
