<svg id="Layer_1" data-name="Layer 1" xmlns="http://www.w3.org/2000/svg" xmlns:xlink="http://www.w3.org/1999/xlink" viewBox="0 0 200 200"><defs><style>.cls-1{fill-rule:evenodd;fill:url(#linear-gradient);}</style><linearGradient id="linear-gradient" x1="60" y1="100" x2="140" y2="100" gradientUnits="userSpaceOnUse"><stop offset="0" stop-color="#ee7623"/><stop offset="1" stop-color="#e2251d"/></linearGradient></defs><path class="cls-1" d="M85,110h30a25,25,0,0,1,25,25,5,5,0,0,1-10,.58l-.06-1.46A15,15,0,0,0,115.88,120l-.88,0H85a15,15,0,0,0-15,15,5,5,0,0,1-10,0,25,25,0,0,1,23.92-25Zm15-50a5,5,0,0,1,0,10,15,15,0,1,0,9.92,26.25,5,5,0,0,1,6.61,7.5A25,25,0,1,1,100,60Zm25,0a5,5,0,0,1,5,5v5h5a5,5,0,0,1,0,10h-5v5a5,5,0,0,1-10,0V80h-5a5,5,0,0,1,0-10h5V65A5,5,0,0,1,125,60Z"/></svg>