<svg id="Layer_1" data-name="Layer 1" xmlns="http://www.w3.org/2000/svg" xmlns:xlink="http://www.w3.org/1999/xlink" viewBox="0 0 200 200"><defs><style>.cls-1{fill-rule:evenodd;fill:url(#linear-gradient);}</style><linearGradient id="linear-gradient" x1="64" y1="100" x2="136" y2="100" gradientUnits="userSpaceOnUse"><stop offset="0" stop-color="#ee7623"/><stop offset="1" stop-color="#e2251d"/></linearGradient></defs><path class="cls-1" d="M100,60a35.81,35.81,0,0,1,36,35.61c0,13-10.89,26.77-32.21,41.76L100,140l-2.29-1.58C75.4,123,64,108.93,64,95.61A35.81,35.81,0,0,1,100,60Zm0,7.91a27.85,27.85,0,0,0-28,27.7c0,9.61,9.19,21.34,28,34.72,18.81-13.38,28-25.11,28-34.72A27.85,27.85,0,0,0,100,67.91ZM100,76A16,16,0,1,1,84,92,16,16,0,0,1,100,76Zm0,8a8,8,0,1,0,8,8A8,8,0,0,0,100,84Z"/></svg>