<svg id="Layer_1" data-name="Layer 1" xmlns="http://www.w3.org/2000/svg" xmlns:xlink="http://www.w3.org/1999/xlink" viewBox="0 0 200 200"><defs><style>.cls-1{fill:url(#linear-gradient);}.cls-2{fill:url(#linear-gradient-2);}.cls-3{fill:url(#linear-gradient-3);}.cls-4{fill:url(#linear-gradient-4);}.cls-5{fill:url(#linear-gradient-5);}.cls-6{fill:url(#linear-gradient-6);}.cls-7{fill:url(#linear-gradient-7);}.cls-8{fill:url(#linear-gradient-8);}.cls-9{fill:url(#linear-gradient-9);}.cls-10{fill:url(#linear-gradient-10);}</style><linearGradient id="linear-gradient" x1="70.53" y1="160.21" x2="126.35" y2="73.82" gradientUnits="userSpaceOnUse"><stop offset="0" stop-color="#ee7623"/><stop offset="1" stop-color="#e2251d"/></linearGradient><linearGradient id="linear-gradient-2" x1="62.78" y1="155.2" x2="118.6" y2="68.81" xlink:href="#linear-gradient"/><linearGradient id="linear-gradient-3" x1="47.21" y1="145.14" x2="103.03" y2="58.75" xlink:href="#linear-gradient"/><linearGradient id="linear-gradient-4" x1="41.02" y1="141.14" x2="96.84" y2="54.75" xlink:href="#linear-gradient"/><linearGradient id="linear-gradient-5" x1="40.85" y1="141.03" x2="96.68" y2="54.64" xlink:href="#linear-gradient"/><linearGradient id="linear-gradient-6" x1="48.65" y1="146.07" x2="104.47" y2="59.68" xlink:href="#linear-gradient"/><linearGradient id="linear-gradient-7" x1="54.83" y1="150.06" x2="110.65" y2="63.67" xlink:href="#linear-gradient"/><linearGradient id="linear-gradient-8" x1="44.81" y1="143.59" x2="100.63" y2="57.2" xlink:href="#linear-gradient"/><linearGradient id="linear-gradient-9" x1="51.03" y1="147.6" x2="106.85" y2="61.21" xlink:href="#linear-gradient"/><linearGradient id="linear-gradient-10" x1="69.63" y1="159.62" x2="125.45" y2="73.23" xlink:href="#linear-gradient"/></defs><path class="cls-1" d="M122.4,158.1H77.6a13.68,13.68,0,0,1-11.84-20.51l17.16-29.72V71.74a4.41,4.41,0,0,0-4.4-4.4h-.43a3,3,0,0,1,0-6h.43a10.42,10.42,0,0,1,10.4,10.4v37.74L71,140.59A7.68,7.68,0,0,0,77.6,152.1h44.8a7.68,7.68,0,0,0,6.65-11.51l-18-31.11V71.74a10.42,10.42,0,0,1,10.4-10.4,3,3,0,0,1,0,6,4.41,4.41,0,0,0-4.4,4.4v36.13l17.16,29.72A13.68,13.68,0,0,1,122.4,158.1Z"/><path class="cls-2" d="M100.46,124.37a1,1,0,0,1-1-1v-53a1,1,0,0,1,2,0v53A1,1,0,0,1,100.46,124.37Z"/><path class="cls-3" d="M106.47,52.17a22.3,22.3,0,0,0-3,2.14c-1.59,1.58-2.58,3.44-1.84,5.83.32,1,.79,1.36,1.82.8A7.11,7.11,0,0,0,106.47,52.17Z"/><path class="cls-4" d="M92.65,53.12a6.63,6.63,0,0,0,5.12,8.29C99.54,57.91,97,53.86,92.65,53.12Z"/><path class="cls-5" d="M99.29,44.9c-3.14,3.46-2.85,8,.61,10.37C103,52.16,102.74,47.13,99.29,44.9Z"/><path class="cls-6" d="M93.28,68.92a6.68,6.68,0,0,0,5.07,8.29C100.8,74,96.82,69.13,93.28,68.92Z"/><path class="cls-7" d="M107.12,68.06a22.14,22.14,0,0,0-2.31,1.27c-2.28,1.61-3.35,4.47-2.53,6.62.25.67.48,1.29,1.46.85A6.92,6.92,0,0,0,107.12,68.06Z"/><path class="cls-8" d="M98.05,69.32c1.76-3.52-.68-7.51-5.11-8.33C91.68,64.83,94.91,69,98.05,69.32Z"/><path class="cls-9" d="M107,60.29c-4.49,1.47-6.51,5.67-4.33,8.77C106.17,68.23,108.16,64.27,107,60.29Z"/><path class="cls-10" d="M92.42,130.58c-9.73,0-14.44-6.7-15.57-10.24a3,3,0,0,1,5.71-1.85c.22.64,2.32,6.09,9.86,6.09,3.16,0,4.92-2,7.76-5.57,3.25-4.06,7.3-9.13,15.54-9.13a3,3,0,0,1,0,6c-5.36,0-7.91,3.19-10.85,6.88S98.62,130.58,92.42,130.58Z"/></svg>