<?xml version="1.0" encoding="utf-8"?>
<!-- Generator: Adobe Illustrator 24.2.0, SVG Export Plug-In . SVG Version: 6.00 Build 0)  -->
<svg version="1.1" id="Layer_1" xmlns="http://www.w3.org/2000/svg" xmlns:xlink="http://www.w3.org/1999/xlink" x="0px" y="0px"
	 viewBox="0 0 200 200" style="enable-background:new 0 0 200 200;" xml:space="preserve">
<style type="text/css">
	.st0{fill:url(#SVGID_1_);}
</style>
<linearGradient id="SVGID_1_" gradientUnits="userSpaceOnUse" x1="25.5132" y1="100" x2="174.4868" y2="100">
	<stop  offset="0" style="stop-color:#EE7623"/>
	<stop  offset="1" style="stop-color:#E2251D"/>
</linearGradient>
<path class="st0" d="M32,68.8c-4.3,4-6.5,10.2-6.5,18.4v25.5c0,1.4,1.1,2.5,2.5,2.5s2.5-1.1,2.5-2.5V87.2c0-6.8,1.6-11.7,4.9-14.7
	c1.5-1.3,3.2-2.3,5.2-2.7c-6.1,13.4,0.8,35.3,2.5,40.3L35.9,127c-0.2,0.4-0.3,0.9-0.2,1.4l2.5,15.3c0,0.1,0.1,0.3,0.1,0.4l2.5,7.6
	c0.3,1,1.3,1.7,2.4,1.7h12.7c1.4,0,2.5-1.1,2.5-2.5c0-0.4-0.1-0.8-0.3-1.1l-4.8-9.6v-13.6L54,126c3.1,1.2,6.4,2,9.7,2.3v2.2
	c0,1.4,1.1,2.5,2.5,2.5c1.4,0,2.5-1.1,2.5-2.5v-2.2c0.2,0,0.5,0,0.7-0.1c3-0.4,5.9-1.3,8.5-2.7l1.7,1.7c1,1,2.6,1,3.6,0s1-2.6,0-3.6
	l-1-1c2.1-1.7,3.9-3.7,5.5-5.9c12.6,8.2,28.2,5.8,34.7,4.2l2.2,22.5c0,0.2,0.1,0.4,0.1,0.6l2.5,7.6c0.3,1,1.3,1.7,2.4,1.7h12.7
	c1.4,0,2.5-1.1,2.5-2.5c0-0.4-0.1-0.8-0.3-1.1l-4.8-9.6v-22.5c0.8-0.2,1.5-0.5,2.2-0.9c4.1-2.6,6.8-8.9,8-19
	c1.2-9.3,3.9-13.1,6-14.6c1.7-1.2,3.2-1.1,3.6-1.1l3.8,1.3c3.3,1.1,6.9-0.1,8.8-3l0.8-1.2c1.9-2.8,1.7-6.6-0.5-9.2
	c-4.4-5.1-12.5-14.6-18-20.1c-3.2-3.2-6.2-3.4-8.1-3c-3.2,0.7-5.6,3.4-7.1,5.7c-0.4-0.4-0.9-0.7-1.4-0.8l-12.7-2.5
	c-1.4-0.3-2.7,0.6-3,2c-0.1,0.5-0.1,1,0.1,1.4l2.5,6.3c0,0.1,0,0.1,0.1,0.1l-0.6,0.2H91.7c-0.1,0-0.3,0-0.4,0l-14.9,2.5L59,59.2
	c-0.1,0-0.2,0-0.4,0c-6,0-10.7,1.7-14.1,5C41.8,64.2,36.4,64.7,32,68.8z M45.2,148.3l-1.7-5.1h5.9l2.5,5.1H45.2z M68.9,123.2
	c-4.1,0.5-8-0.2-11.1-1.2c3.4-3.5,10.1-9.7,17.3-10.5c3.1-0.4,6.2,0.5,8.8,2.3C79.7,119.3,74.7,122.4,68.9,123.2z M131.8,148.3
	l-1.7-5.1h5.9l2.5,5.1H131.8z M168.8,73.2c0.7,0.9,0.8,2.1,0.2,3.1l-0.8,1.2c-0.6,1-1.8,1.4-2.9,1l-4-1.3c-0.1,0-0.1,0-0.2-0.1
	c-0.3-0.1-0.5-0.1-0.8-0.1c-0.7-3.6-2.5-7.3-5.3-11.5c-1.2-1.8-2-5.5-2.3-10.4C158,60.6,164.9,68.6,168.8,73.2z M135.8,56.4l2.7,5.4
	h-1.7c-3.1,0-5.9-1.9-7.1-4.8l-0.8-2L135.8,56.4z M122,64.3h2.8c0.3,0,0.5,0,0.8-0.1l2.4-0.8c2.4,2.2,5.5,3.5,8.8,3.5h5.8
	c1.4,0,2.5-1.1,2.5-2.5c0-0.4-0.1-0.8-0.3-1.1l-2.6-5.2c0.1-0.1,0.1-0.2,0.2-0.3c0.7-1.7,2.8-5.4,5-5.9c0.1,7.9,1.1,13.4,3.2,16.5
	c2.4,3.6,3.9,6.7,4.5,9.6c-0.6,0.3-1.2,0.6-1.7,1c-3.5,2.4-6,6.8-7.4,13.1c-1.6,1.9-3.6,2.9-6,2.9c-2,0-2.1-0.4-2.9-2
	c-1.4-2.9-3.3-5.7-9.8-5.7c-0.6,0-1.1-0.3-1.5-0.7C123.3,83.9,121.9,75.7,122,64.3z M68.8,65.8l7.3,1c0.3,0,0.5,0,0.8,0l15.1-2.5
	H103c-1.1,2.1-1.6,4.1-1.4,5.9c0.2,2.4,1.5,4.6,3.8,6.3c1.9,1.5,2.9,3,2.9,4.7c0.1,3.7-3.9,7.7-5.5,9c-7.1,5-12.8,6.5-16.8,4.7
	C80,92.1,79,82,79,81.9c-0.1-0.7-0.4-1.4-1-1.8l-6.1-4.6c-1.9-1.4-3.1-3.7-3.1-6.1V65.8z M58.4,64.3l5.3,0.8v4.3
	c0,4,1.9,7.8,5.1,10.2l5.3,3.9c0.5,3.3,2.6,12.6,9.9,16c1.8,0.8,3.8,1.2,5.7,1.2c4.7,0,10.1-2.1,16.2-6.4c0,0,0.1-0.1,0.1-0.1
	c0.8-0.6,7.6-6.2,7.5-13.1c0-2.3-0.9-5.7-5-8.8c-1.1-0.8-1.7-1.7-1.8-2.7c-0.1-1.4,0.7-3.3,2.4-5.4h7.8c-0.1,16.5,2.8,23.1,5.3,25.8
	c1.3,1.4,3.2,2.2,5.1,2.3c3.9,0,4.4,1.1,5.2,2.8c0.9,1.9,2.4,4.8,7.5,4.8c1.7,0,3.3-0.3,4.8-0.9c-1.3,8.5-3.4,11.7-4.8,13V105
	c0-1.4-1.1-2.5-2.5-2.5s-2.5,1.1-2.5,2.5v33.1h-5.6l-2.1-20.6l0,0c0-0.1,0-0.2,0-0.3c0,0,0,0,0,0c0-0.1,0-0.2-0.1-0.2c0,0,0,0,0-0.1
	c0-0.1,0-0.1-0.1-0.2c0,0,0,0,0-0.1c0-0.1-0.1-0.1-0.1-0.2c0,0,0,0,0-0.1c0-0.1-0.1-0.1-0.1-0.2c0,0,0,0,0,0c0-0.1-0.1-0.1-0.2-0.2
	c0,0,0,0,0,0c-0.1-0.1-0.3-0.3-0.4-0.4l0,0l0,0c-0.1,0-0.2-0.1-0.2-0.1c0,0,0,0,0,0c-0.1,0-0.1-0.1-0.2-0.1l0,0
	c-0.1,0-0.1,0-0.2-0.1l0,0c-0.1,0-0.2,0-0.2,0c0,0,0,0,0,0c-0.1,0-0.2,0-0.2,0c0,0,0,0,0,0c0,0,0,0,0,0c-5.5,0-7.7-8.2-7.7-8.3
	c-0.4-1.4-1.7-2.2-3.1-1.8c-1.3,0.3-2.2,1.7-1.8,3.1c0.6,2.1,1.4,4,2.5,5.8c0.6,1,1.4,2,2.3,2.9c-1.9,0.3-3.8,0.5-5.8,0.5
	c-9.4,0.4-17.1-1.9-23-6.7c-4.1-3.4-8.7-4.9-13.8-4.3c-11.8,1.3-21.7,13.3-22.9,14.8l-2.4,2.4c-0.5,0.5-0.7,1.1-0.7,1.8v12.7h-5.9
	l-1.6-9.9l7.3-17.1c0.3-0.6,0.3-1.3,0-1.9c-1.8-5.1-3.1-10.3-4-15.7c-1.8-10.9-1-19.1,2.3-24C49,66.1,52.9,64.3,58.4,64.3z"/>
</svg>
