<svg id="Layer_1" data-name="Layer 1" xmlns="http://www.w3.org/2000/svg" xmlns:xlink="http://www.w3.org/1999/xlink" viewBox="0 0 200 200"><defs><style>.cls-1{fill:url(#linear-gradient);}.cls-2{fill:url(#linear-gradient-2);}.cls-3{fill:url(#linear-gradient-3);}</style><linearGradient id="linear-gradient" x1="47.51" y1="113.96" x2="113.97" y2="95.36" gradientUnits="userSpaceOnUse"><stop offset="0" stop-color="#ee7623"/><stop offset="1" stop-color="#e2251d"/></linearGradient><linearGradient id="linear-gradient-2" x1="49.68" y1="121.7" x2="116.13" y2="103.09" xlink:href="#linear-gradient"/><linearGradient id="linear-gradient-3" x1="48.98" y1="119.19" x2="115.43" y2="100.59" xlink:href="#linear-gradient"/></defs><path class="cls-1" d="M117.18,138H79.42c-23.31,0-42.28-17-42.28-38,0-10.14,8-17.19,15.14-23.42l2-1.73c.66-.58,1.3-1.17,1.93-1.74C62.48,67.4,68.43,62,79.42,62c18.3,0,34.44,10.49,40.15,26.11l1.09,3-3,.93a18.79,18.79,0,0,1-11.54-.08,19.21,19.21,0,0,0-11.53,0,18.76,18.76,0,0,0-10.45,7.6,12.25,12.25,0,0,0,5.61,18.62,18.75,18.75,0,0,0,12.91.56,19.19,19.19,0,0,0,9.59-6.4,18.84,18.84,0,0,1,10.59-6.72l.6-.17a9.33,9.33,0,0,0,6.47-6.09L131.65,93l3.62,5.43a23.16,23.16,0,0,1,3.89,12.88C139.16,123.67,129.56,138,117.18,138ZM79.42,68c-8.67,0-13.1,4-19.22,9.55l-2,1.77c-.65.59-1.32,1.17-2,1.77C49.8,86.74,43.14,92.58,43.14,100c0,17.64,16.28,32,36.28,32h37.76c8.6,0,16-11.35,16-20.65a17.41,17.41,0,0,0-.67-4.78,16.26,16.26,0,0,1-7.35,4.59c-.31.09-.62.18-.93.25A13,13,0,0,0,117,116a25.28,25.28,0,0,1-12.59,8.46,24.74,24.74,0,0,1-17-.81,18.25,18.25,0,0,1-8.25-27.38A24.8,24.8,0,0,1,92.83,86.16a25.27,25.27,0,0,1,15.16.09,12.47,12.47,0,0,0,4.51.62C106.7,75.46,93.86,68,79.42,68Z"/><path class="cls-2" d="M154.28,106.77a8.56,8.56,0,0,1-8.24-6.19l-11.32,1.7a3,3,0,0,1-.89-5.94l14.23-2.14a3,3,0,0,1,3.68,3.61l0,0a2.58,2.58,0,0,0,5.09.83,3.15,3.15,0,0,0-.49-2.22,2.73,2.73,0,0,0-1.68-1.27,3,3,0,0,1-1.29-5.28,5,5,0,0,0,.77-2,2.58,2.58,0,0,0-2-3,2.5,2.5,0,0,0-1,0,2.41,2.41,0,0,0-1.71,2.78l.13.87A3,3,0,0,1,147,91.93l-14.55,2.19a3,3,0,0,1-.89-5.94l11.83-1.78A8.28,8.28,0,0,1,149.84,79a8.51,8.51,0,0,1,3.41,0A8.6,8.6,0,0,1,160,89a15.24,15.24,0,0,1-.56,2,9.41,9.41,0,0,1,1.93,2.18,9.19,9.19,0,0,1,1.32,6.61A8.6,8.6,0,0,1,154.28,106.77Z"/><path class="cls-3" d="M96.8,125.57a23.65,23.65,0,0,1-9.48-1.94,18.25,18.25,0,0,1-8.25-27.38A24.8,24.8,0,0,1,92.83,86.16h0a25.28,25.28,0,0,1,15.16.09,12.91,12.91,0,0,0,8.58-.19c.3-.11.61-.21.92-.3a15.86,15.86,0,0,1,11,.57,12.48,12.48,0,0,1,7.1,7.81c2.11,7-2.59,14.63-10.48,17-.31.09-.62.18-.93.25A13,13,0,0,0,117,116a25.28,25.28,0,0,1-12.59,8.46A26.34,26.34,0,0,1,96.8,125.57ZM100.38,91a20.08,20.08,0,0,0-5.82.87h0a18.76,18.76,0,0,0-10.45,7.6,12.25,12.25,0,0,0,5.61,18.62,18.75,18.75,0,0,0,12.91.56,19.26,19.26,0,0,0,9.6-6.4,18.78,18.78,0,0,1,10.58-6.72l.6-.17c4.72-1.42,7.62-5.69,6.47-9.53a6.61,6.61,0,0,0-3.79-4.06,10,10,0,0,0-6.87-.31l-.6.2a18.79,18.79,0,0,1-12.53.24A18.1,18.1,0,0,0,100.38,91Zm-6.69-2h0Z"/></svg>