<svg id="Layer_1" data-name="Layer 1" xmlns="http://www.w3.org/2000/svg" xmlns:xlink="http://www.w3.org/1999/xlink" viewBox="0 0 200 200"><defs><style>.cls-1{fill:url(#linear-gradient);}.cls-2{fill:url(#linear-gradient-2);}.cls-3{fill-rule:evenodd;fill:url(#linear-gradient-3);}</style><linearGradient id="linear-gradient" x1="55.13" y1="147.89" x2="138.86" y2="57.51" gradientUnits="userSpaceOnUse"><stop offset="0" stop-color="#ee7623"/><stop offset="1" stop-color="#e2251d"/></linearGradient><linearGradient id="linear-gradient-2" x1="53.38" y1="146.27" x2="137.11" y2="55.89" xlink:href="#linear-gradient"/><linearGradient id="linear-gradient-3" x1="53.11" y1="146.02" x2="136.84" y2="55.64" xlink:href="#linear-gradient"/></defs><path class="cls-1" d="M105.23,156.38c-2.36,0-4.77,0-7.27-.12A196.35,196.35,0,0,1,66.14,153a62.07,62.07,0,0,1-7.37-2c-4-1.3-4.19-3.83-3.79-6.38A29.59,29.59,0,0,1,58.17,136c.31-.62.65-1.23,1-1.84l.52-.93a136,136,0,0,1-4.41-37C55.43,86.1,57,76.68,58.61,66.71L59,64.3a6.46,6.46,0,0,0,.12-2.43,6.13,6.13,0,0,0-.85-1.45c-.16-.23-.32-.46-.47-.7a17.2,17.2,0,0,1-2.43-5.79,5.09,5.09,0,0,1,.32-3.51,5.21,5.21,0,0,1,3.53-2.49,121.33,121.33,0,0,1,20.6-3.18,283.78,283.78,0,0,1,30-1.08,200,200,0,0,1,28.89,2.82,8.24,8.24,0,0,1,4.84,2.1c2.62,2.68,1.82,6.86-.27,9.42a19.15,19.15,0,0,1-2.47,2.41A13.22,13.22,0,0,0,139,62.13c-1.63,2.06,1,12.74,2.17,17.3a66,66,0,0,1,1.72,8.12c1.71,17.13.45,33-3.73,47.22l-.09.32.18.21.78.86a19.59,19.59,0,0,1,4,5.67,7.74,7.74,0,0,1-.28,7.27c-3,4.88-11.48,5.58-17.1,6.05-.83.07-1.57.13-2.16.2A170.16,170.16,0,0,1,105.23,156.38ZM60.94,145.43a55.69,55.69,0,0,0,6.35,1.69,191.32,191.32,0,0,0,30.86,3.14,175.26,175.26,0,0,0,25.66-.88c.65-.07,1.45-.14,2.36-.21,3-.25,11.07-.92,12.47-3.21.09-.15.36-.59-.15-1.85a14.79,14.79,0,0,0-2.89-3.91l-.83-.93a6.28,6.28,0,0,1-1.65-3c0-.12,0-.23-.06-.34v0a7,7,0,0,1,.35-2.84c4-13.46,5.15-28.57,3.52-44.94a64,64,0,0,0-1.58-7.25c-2.64-10.6-4.26-18.42-1-22.48a18.57,18.57,0,0,1,2.57-2.54,14.59,14.59,0,0,0,1.73-1.65,2.54,2.54,0,0,0,.58-1.47,6.82,6.82,0,0,0-1.45-.34,194.22,194.22,0,0,0-28-2.74,274.49,274.49,0,0,0-29.33,1.06,118.26,118.26,0,0,0-18.88,2.82,11.37,11.37,0,0,0,1.35,2.89c.12.19.26.38.39.57a11.24,11.24,0,0,1,1.66,3.12,11.3,11.3,0,0,1,.05,5.14l-.4,2.41c-1.59,9.75-3.1,19-3.26,28.61a130.07,130.07,0,0,0,4.38,36.06,4.34,4.34,0,0,1-.35,3.07c-.29.56-.6,1.11-.9,1.66s-.6,1.06-.88,1.61A24.7,24.7,0,0,0,60.94,145.43Z"/><path class="cls-2" d="M99.46,124.54a28,28,0,1,1,28-28A28,28,0,0,1,99.46,124.54Zm0-50a22,22,0,1,0,22,22A22,22,0,0,0,99.46,74.51Z"/><path class="cls-3" d="M111.83,84.16a17.1,17.1,0,0,0-1.39-1.27,4.83,4.83,0,0,0-.59-.43,1.48,1.48,0,0,0-.31-.15.74.74,0,0,0-.56,0,.79.79,0,0,0-.46.31,1.68,1.68,0,0,0-.2.29,6.26,6.26,0,0,0-.3.67c-.19.51-.39,1.14-.56,1.79a18.5,18.5,0,0,0-.41,1.84c0,.09,0,.16,0,.24L93.39,101.05l-2.33-2.32a.92.92,0,0,0-1.3,0l-1.59,1.59c-3.11,3.12-3.92,7.27-1.85,9.34s6.23,1.27,9.35-1.84l1.59-1.59a.92.92,0,0,0,0-1.3l-2.32-2.33L108.58,89l.24,0a18.5,18.5,0,0,0,1.84-.41,16.53,16.53,0,0,0,1.79-.57,3.83,3.83,0,0,0,.67-.3,1.6,1.6,0,0,0,.29-.19.86.86,0,0,0,.27-1,1.48,1.48,0,0,0-.15-.31,4.83,4.83,0,0,0-.43-.59,17.1,17.1,0,0,0-1.27-1.39Zm-1,1c.45.45.87.91,1.17,1.28l.08.1-.13.06c-.43.16-1,.35-1.65.52a16.54,16.54,0,0,1-1.69.37l-.13,0c0-.06,0-.08,0-.14.07-.46.21-1.08.37-1.69a16.39,16.39,0,0,1,.52-1.65s0-.07.06-.12l.1.08a15.56,15.56,0,0,1,1.28,1.17Z"/></svg>