<svg id="Layer_1" data-name="Layer 1" xmlns="http://www.w3.org/2000/svg" xmlns:xlink="http://www.w3.org/1999/xlink" viewBox="0 0 200 200"><defs><style>.cls-1{fill:url(#linear-gradient);}.cls-2{fill:url(#linear-gradient-2);}.cls-3{fill:url(#linear-gradient-3);}.cls-4{fill:url(#linear-gradient-4);}.cls-5{fill:url(#linear-gradient-5);}.cls-6{fill:url(#linear-gradient-6);}.cls-7{fill:url(#linear-gradient-7);}.cls-8{fill:url(#linear-gradient-8);}.cls-9{fill:url(#linear-gradient-9);}.cls-10{fill:url(#linear-gradient-10);}.cls-11{fill:url(#linear-gradient-11);}.cls-12{fill:url(#linear-gradient-12);}.cls-13{fill:url(#linear-gradient-13);}.cls-14{fill:url(#linear-gradient-14);}.cls-15{fill:url(#linear-gradient-15);}.cls-16{fill:url(#linear-gradient-16);}</style><linearGradient id="linear-gradient" x1="60.45" y1="127.8" x2="130.89" y2="83.94" gradientUnits="userSpaceOnUse"><stop offset="0" stop-color="#ee7623"/><stop offset="1" stop-color="#e2251d"/></linearGradient><linearGradient id="linear-gradient-2" x1="50.72" y1="112.17" x2="121.16" y2="68.31" xlink:href="#linear-gradient"/><linearGradient id="linear-gradient-3" x1="42.54" y1="99.03" x2="112.98" y2="55.17" xlink:href="#linear-gradient"/><linearGradient id="linear-gradient-4" x1="43.23" y1="100.14" x2="113.67" y2="56.28" xlink:href="#linear-gradient"/><linearGradient id="linear-gradient-5" x1="50.47" y1="111.76" x2="120.91" y2="67.9" xlink:href="#linear-gradient"/><linearGradient id="linear-gradient-6" x1="58.65" y1="124.9" x2="129.09" y2="81.04" xlink:href="#linear-gradient"/><linearGradient id="linear-gradient-7" x1="46.49" y1="105.37" x2="116.93" y2="61.51" xlink:href="#linear-gradient"/><linearGradient id="linear-gradient-8" x1="54.71" y1="118.57" x2="125.15" y2="74.71" xlink:href="#linear-gradient"/><linearGradient id="linear-gradient-9" x1="73.39" y1="148.58" x2="143.83" y2="104.72" xlink:href="#linear-gradient"/><linearGradient id="linear-gradient-10" x1="63.66" y1="132.95" x2="134.1" y2="89.09" xlink:href="#linear-gradient"/><linearGradient id="linear-gradient-11" x1="55.48" y1="119.81" x2="125.92" y2="75.95" xlink:href="#linear-gradient"/><linearGradient id="linear-gradient-12" x1="56.17" y1="120.92" x2="126.61" y2="77.06" xlink:href="#linear-gradient"/><linearGradient id="linear-gradient-13" x1="63.41" y1="132.54" x2="133.85" y2="88.68" xlink:href="#linear-gradient"/><linearGradient id="linear-gradient-14" x1="71.59" y1="145.68" x2="142.03" y2="101.82" xlink:href="#linear-gradient"/><linearGradient id="linear-gradient-15" x1="59.43" y1="126.16" x2="129.87" y2="82.3" xlink:href="#linear-gradient"/><linearGradient id="linear-gradient-16" x1="67.65" y1="139.35" x2="138.09" y2="95.49" xlink:href="#linear-gradient"/></defs><path class="cls-1" d="M43.24,148.82A3,3,0,0,1,40.82,144l19.87-27a3,3,0,0,1,4.83,3.55l-19.86,27A3,3,0,0,1,43.24,148.82Z"/><path class="cls-2" d="M96.65,89.5a15,15,0,0,1-2.57-.22,5.32,5.32,0,0,1-4-2.46A5.68,5.68,0,0,1,90,82c1.88-4.81,5.88-7.59,11.9-8.27a23.46,23.46,0,0,1,5.25.18c.71.08,1.45.16,2.22.21l3.9.26L112,78.06A16.5,16.5,0,0,1,96.65,89.5Zm-.72-6a9.82,9.82,0,0,0,8.52-3.83,11.2,11.2,0,0,0-1.84,0C99.11,80.06,97.07,81.21,95.93,83.47Z"/><path class="cls-3" d="M85,84.18,83.56,82.5A14.88,14.88,0,0,1,79.91,71a15.75,15.75,0,0,1,6.23-10.92l2.19-1.64,1.83,2a15.93,15.93,0,0,1,4.08,13.68,12.69,12.69,0,0,1-7.17,9.08Zm2.49-17a9.45,9.45,0,0,0-1.65,4.44,9,9,0,0,0,.75,4.69A6.74,6.74,0,0,0,88.36,73,9.17,9.17,0,0,0,87.53,67.19Z"/><path class="cls-4" d="M96.61,73.28l-.73-2.4a14.68,14.68,0,0,1,1.48-12.17,17,17,0,0,1,12-7.49l2.5-.41.82,2.4a14.31,14.31,0,0,1-1.53,12.3,16.38,16.38,0,0,1-12,7.48Zm10.83-15.36a10.07,10.07,0,0,0-5,4,8.23,8.23,0,0,0-1.26,4.44,10.27,10.27,0,0,0,4.89-4A8.44,8.44,0,0,0,107.44,57.92Z"/><path class="cls-5" d="M61.85,115.62l-1.21-1.46a15.2,15.2,0,0,1-3.49-11.36,15.94,15.94,0,0,1,6.12-10.87l2-1.56,1.88,1.68c3.69,3.29,5.41,9.59,4.09,15-1,4.2-3.77,7.15-7.53,8.1ZM64.79,99a9.57,9.57,0,0,0-1.67,4.46,9,9,0,0,0,.86,4.91,5.76,5.76,0,0,0,1.41-2.72A11,11,0,0,0,64.79,99Z"/><path class="cls-6" d="M74.17,121.24a14.87,14.87,0,0,1-3.61-.45,4.84,4.84,0,0,1-3.21-2.27,5.4,5.4,0,0,1-.07-4.46c1.71-5.41,7.87-9.21,14.37-8.84a24,24,0,0,1,3.73.57l1.46.28,3.4.59-1.06,3.28A16,16,0,0,1,74.17,121.24Zm-.9-6a9.77,9.77,0,0,0,8.55-3.94l-.5,0C77.86,111,74.49,112.72,73.27,115.19Z"/><path class="cls-7" d="M73.77,100l-1.48-1.41c-2.77-2.63-4.18-6.93-3.78-11.5a14.83,14.83,0,0,1,6.36-11.24l2.19-1.45,1.73,2a16.19,16.19,0,0,1,4,13.78,12.74,12.74,0,0,1-7.16,9Zm2.28-17a9.92,9.92,0,0,0-1.56,4.62,10,10,0,0,0,.64,4.65,6.73,6.73,0,0,0,1.78-3.36A9.27,9.27,0,0,0,76.05,83Z"/><path class="cls-8" d="M85.88,105.31A13.59,13.59,0,0,1,80.06,104l-1.84-.86.12-2a11.7,11.7,0,0,1,5.42-9.34c4.07-2.67,9.7-3.08,15.06-1.1l2.87,1.06-1.12,2.85a16.94,16.94,0,0,1-9.34,9.67A14.39,14.39,0,0,1,85.88,105.31Zm-1-6.07A8.38,8.38,0,0,0,89,98.69a10.31,10.31,0,0,0,4.21-3.2A9.57,9.57,0,0,0,87,96.8,5.9,5.9,0,0,0,84.88,99.24Z"/><path class="cls-9" d="M89.55,148.82A3,3,0,0,1,87.14,144l19.86-27a3,3,0,0,1,4.84,3.55L92,147.6A3,3,0,0,1,89.55,148.82Z"/><path class="cls-10" d="M143,89.5a14.75,14.75,0,0,1-2.56-.22,5.3,5.3,0,0,1-4-2.46,5.64,5.64,0,0,1,0-4.85c1.87-4.81,5.88-7.59,11.89-8.27a23.42,23.42,0,0,1,5.25.18c.72.08,1.46.16,2.22.21l3.91.26-1.27,3.71A16.51,16.51,0,0,1,143,89.5Zm-.71-6a9.81,9.81,0,0,0,8.51-3.83,11.08,11.08,0,0,0-1.83,0C145.43,80.06,143.38,81.21,142.25,83.47Z"/><path class="cls-11" d="M131.36,84.18l-1.48-1.68A14.88,14.88,0,0,1,126.23,71a15.68,15.68,0,0,1,6.23-10.92l2.19-1.64,1.83,2a15.89,15.89,0,0,1,4.07,13.68,12.68,12.68,0,0,1-7.16,9.08Zm2.48-17a9.55,9.55,0,0,0-1.64,4.44,9,9,0,0,0,.74,4.69A6.66,6.66,0,0,0,134.67,73,9,9,0,0,0,133.84,67.19Z"/><path class="cls-12" d="M142.93,73.28l-.73-2.4a14.67,14.67,0,0,1,1.47-12.17,17,17,0,0,1,12-7.49l2.51-.41.81,2.4a14.31,14.31,0,0,1-1.53,12.3A16.37,16.37,0,0,1,145.42,73Zm10.83-15.36a10.09,10.09,0,0,0-5,4,8.22,8.22,0,0,0-1.25,4.44,10.27,10.27,0,0,0,4.89-4A8.53,8.53,0,0,0,153.76,57.92Z"/><path class="cls-13" d="M108.17,115.62,107,114.16a15.2,15.2,0,0,1-3.49-11.36,15.91,15.91,0,0,1,6.12-10.87l2-1.56,1.88,1.68c3.69,3.29,5.42,9.59,4.1,15-1,4.21-3.78,7.16-7.54,8.11ZM111.11,99a9.58,9.58,0,0,0-1.68,4.46,9.14,9.14,0,0,0,.86,4.91,5.78,5.78,0,0,0,1.42-2.72A11.11,11.11,0,0,0,111.11,99Z"/><path class="cls-14" d="M120.48,121.24a14.85,14.85,0,0,1-3.6-.45,4.88,4.88,0,0,1-3.22-2.27,5.5,5.5,0,0,1-.07-4.47c1.72-5.4,7.88-9.19,14.37-8.83a23.86,23.86,0,0,1,3.73.57l1.46.28,3.4.59-1.05,3.28A16,16,0,0,1,120.48,121.24Zm-.89-6a9.77,9.77,0,0,0,8.55-3.94l-.51,0C124.23,111,120.81,112.76,119.59,115.19Z"/><path class="cls-15" d="M120.08,100l-1.48-1.41c-2.76-2.63-4.17-6.93-3.77-11.5a14.83,14.83,0,0,1,6.36-11.24l2.19-1.45,1.72,2a16.2,16.2,0,0,1,4,13.78,12.79,12.79,0,0,1-7.16,9Zm2.28-17a9.8,9.8,0,0,0-1.55,4.62,10,10,0,0,0,.64,4.65,6.73,6.73,0,0,0,1.78-3.36A9.27,9.27,0,0,0,122.36,83Z"/><path class="cls-16" d="M132.2,105.31a13.66,13.66,0,0,1-5.83-1.31l-1.83-.86.11-2a11.75,11.75,0,0,1,5.42-9.34c4.07-2.67,9.7-3.08,15.06-1.1L148,91.74l-1.11,2.85a17,17,0,0,1-9.35,9.67A14.34,14.34,0,0,1,132.2,105.31Zm-1-6.07a8.37,8.37,0,0,0,4.13-.55,10.34,10.34,0,0,0,4.22-3.2,9.55,9.55,0,0,0-6.18,1.31A5.91,5.91,0,0,0,131.19,99.24Z"/></svg>