<svg id="Layer_1" data-name="Layer 1" xmlns="http://www.w3.org/2000/svg" xmlns:xlink="http://www.w3.org/1999/xlink" viewBox="0 0 200 200"><defs><style>.cls-1{fill:url(#linear-gradient);}.cls-2{fill:url(#linear-gradient-2);}.cls-3{fill:url(#linear-gradient-3);}</style><linearGradient id="linear-gradient" x1="56.47" y1="130.07" x2="121.6" y2="82.22" gradientUnits="userSpaceOnUse"><stop offset="0" stop-color="#ee7623"/><stop offset="1" stop-color="#e2251d"/></linearGradient><linearGradient id="linear-gradient-2" x1="52.62" y1="124.83" x2="117.75" y2="76.98" xlink:href="#linear-gradient"/><linearGradient id="linear-gradient-3" x1="84.45" y1="168.15" x2="149.57" y2="120.3" xlink:href="#linear-gradient"/></defs><path class="cls-1" d="M69.23,107.33A13.37,13.37,0,1,1,55.87,120.7a13.29,13.29,0,0,1,13.36-13.37m0-6A19.37,19.37,0,1,0,88.59,120.7a19.39,19.39,0,0,0-19.36-19.37Z"/><path class="cls-2" d="M90.42,64.75c2.58,0,4.58,1.25,4.87,3,.65,3.78,6.09,29.93,6.09,29.93H134.2c2.66,0,7.3.32,8.65,2.43a10.19,10.19,0,0,1,1,4.84,23.81,23.81,0,0,0-4.49-.43,23.38,23.38,0,0,0-19.28,10.22H98.66a30.07,30.07,0,0,0-29.43-24,29.48,29.48,0,0,0-3.53.2l2.84-24.3.21-1.82H90.42m0-6H61.17a3.55,3.55,0,0,0-3.55,3.55h0a3.56,3.56,0,0,0,3.52,3.56l1.44,0-3,25.29A30.4,30.4,0,0,0,50.27,96a3.57,3.57,0,0,0-.39,5.4h0a3.6,3.6,0,0,0,4.74.28A24,24,0,0,1,93.26,120.7h30.28a17.31,17.31,0,0,1,26.32-6.65V108c0-7.5.29-16.35-15.66-16.35H106.31s-4.61-23.33-5.42-26.3c-1.14-4.16-7.33-6.59-10.47-6.59Z"/><path class="cls-3" d="M139.34,120.38a7.44,7.44,0,1,1-7.44,7.44,7.45,7.45,0,0,1,7.44-7.44m0-6a13.44,13.44,0,1,0,13.44,13.44,13.46,13.46,0,0,0-13.44-13.44Z"/></svg>