<svg id="Layer_1" data-name="Layer 1" xmlns="http://www.w3.org/2000/svg" xmlns:xlink="http://www.w3.org/1999/xlink" viewBox="0 0 200 200"><defs><style>.cls-1{fill:url(#linear-gradient);}.cls-2{fill:url(#linear-gradient-2);}.cls-3{fill:url(#linear-gradient-3);}.cls-4{fill:url(#linear-gradient-4);}.cls-5{fill:url(#linear-gradient-5);}.cls-6{fill:url(#linear-gradient-6);}.cls-7{fill:url(#linear-gradient-7);}.cls-8{fill:url(#linear-gradient-8);}</style><linearGradient id="linear-gradient" x1="77.16" y1="158.63" x2="136.97" y2="128.06" gradientUnits="userSpaceOnUse"><stop offset="0" stop-color="#ee7623"/><stop offset="1" stop-color="#e2251d"/></linearGradient><linearGradient id="linear-gradient-2" x1="62.51" y1="129.96" x2="122.32" y2="99.39" xlink:href="#linear-gradient"/><linearGradient id="linear-gradient-3" x1="41.57" y1="88.99" x2="101.38" y2="58.42" xlink:href="#linear-gradient"/><linearGradient id="linear-gradient-4" x1="58.63" y1="122.38" x2="118.44" y2="91.81" xlink:href="#linear-gradient"/><linearGradient id="linear-gradient-5" x1="42.01" y1="89.85" x2="101.82" y2="59.28" xlink:href="#linear-gradient"/><linearGradient id="linear-gradient-6" x1="62.34" y1="129.62" x2="122.15" y2="99.05" xlink:href="#linear-gradient"/><linearGradient id="linear-gradient-7" x1="57.25" y1="119.66" x2="117.06" y2="89.09" xlink:href="#linear-gradient"/><linearGradient id="linear-gradient-8" x1="78.35" y1="160.95" x2="138.16" y2="130.38" xlink:href="#linear-gradient"/></defs><path class="cls-1" d="M137,151.78a9.12,9.12,0,0,1-3.56-.71h0a19.36,19.36,0,0,1-9.07-7.46c-.6-.93-1.61-1.86-4.77-1.76-7.24.25-12.81-3.52-14.54-9.85a13.84,13.84,0,0,1,1.76-11.49,16.12,16.12,0,0,1,11.51-6.78c7.72-1,18.29,2.64,25.13,8.66,4.86,4.28,7.43,9.29,7.42,14.49,0,4.45-3.28,10-7.61,12.85A11.31,11.31,0,0,1,137,151.78Zm-16.95-15.94c4.26,0,7.4,1.51,9.35,4.49a13.32,13.32,0,0,0,6.35,5.2h0c1.22.51,2.64.25,4.2-.79,2.9-1.93,4.92-5.7,4.93-7.87,0-4.33-2.92-7.81-5.38-10-5.57-4.9-14.34-8-20.4-7.21a10.15,10.15,0,0,0-7.28,4.15,7.82,7.82,0,0,0-1,6.59c1,3.61,4.12,5.56,8.56,5.43Z"/><path class="cls-2" d="M77.4,146.45l-.68,0c-10-.39-17.61-7.73-21.28-12.07s-5.79-8.65-6.26-13a14.74,14.74,0,0,1,.12-4.2h0A15.12,15.12,0,0,1,62.81,105c6-.5,11,2.91,13.1,8.9,1.1,3.08,2.62,4.49,5.63,5.2,7.34,1.73,11.69,8,10.58,15.33C91,141.47,84.91,146.45,77.4,146.45ZM55.21,118.24a9.13,9.13,0,0,0-.07,2.51c.34,3.07,1.94,6.26,4.88,9.73s9.28,9.65,16.94,10c4.75.17,8.58-2.67,9.23-6.95s-1.79-7.59-6-8.59c-5-1.17-8.14-4-9.91-9-1.66-4.66-5.06-5.09-7-4.93a9.2,9.2,0,0,0-8.1,7.3Z"/><path class="cls-3" d="M82.28,93.22A15.74,15.74,0,0,1,78,92.63C67.36,89.61,57.09,76,57.29,65.17c.09-4.75.85-10.1,5.8-13.79,4.6-3.44,9.62-4.09,14.52-1.9s7.55,6.37,7.81,11.92a6.22,6.22,0,0,0,3.67,5.84c6.52,3.59,9.27,10.61,6.69,17.07A14.38,14.38,0,0,1,82.28,93.22Zm-10.36-39a8.72,8.72,0,0,0-5.24,2c-2,1.46-3.29,3.56-3.39,9.09h0c-.15,8.19,8.26,19.28,16.36,21.57,4.51,1.28,8.95-.73,10.56-4.77,1.46-3.67-.11-7.43-4-9.59a12.19,12.19,0,0,1-6.76-10.81c-.16-3.31-1.55-5.5-4.27-6.72A7.86,7.86,0,0,0,71.92,54.22Zm-11.63,11h0Z"/><path class="cls-4" d="M102.37,115.61c-12,0-16.16-5.62-17.57-10.35a13.83,13.83,0,0,1,1.82-12.11A13.27,13.27,0,0,1,97,87.66c3.61-.15,5.57-1.28,7.23-4.17a13,13,0,0,1,16.86-5.39,14.56,14.56,0,0,1,8.2,16.19,21.61,21.61,0,0,1-6.68,11.32c-3.19,3-11.52,10-20.21,10h0Zm13.12-32.74a6.93,6.93,0,0,0-6.06,3.61c-2.67,4.66-6.54,6.94-12.17,7.17a7.24,7.24,0,0,0-5.75,3,7.92,7.92,0,0,0-1,6.91c.45,1.5,1.83,6.07,11.83,6.07h0c5.34,0,11.81-4.32,16.09-8.36a16,16,0,0,0,4.91-8.11,8.6,8.6,0,0,0-4.78-9.58A7.74,7.74,0,0,0,115.49,82.87Z"/><path class="cls-5" d="M80.9,75.77a3,3,0,0,1-1.5-.4c-2.33-1.33-3.78-4.63-4.17-5.61a3,3,0,0,1,5.58-2.22,8.18,8.18,0,0,0,1.6,2.64,3,3,0,0,1-1.51,5.59Z"/><path class="cls-6" d="M74.19,129.05a3.88,3.88,0,0,1-.48,0c-2.66-.43-5.17-3-5.88-3.8a3,3,0,1,1,4.45-4h0a8.28,8.28,0,0,0,2.42,1.91,3,3,0,0,1,2.47,3.44A3,3,0,0,1,74.19,129.05Z"/><path class="cls-7" d="M104.75,98.59a3,3,0,0,1-1-5.84,8.31,8.31,0,0,0,2.71-1.48,3,3,0,0,1,4.13-.93,3,3,0,0,1,.93,4.15c-1.43,2.27-4.79,3.58-5.79,3.93A3.06,3.06,0,0,1,104.75,98.59Z"/><path class="cls-8" d="M129.84,140a3,3,0,0,1-2.09-.85,8.36,8.36,0,0,0-2.54-1.76,3,3,0,0,1-2.68-3.27,3,3,0,0,1,3.3-2.69c2.67.26,5.34,2.68,6.1,3.42a3,3,0,0,1-2.09,5.15Z"/></svg>