<svg id="Layer_1" data-name="Layer 1" xmlns="http://www.w3.org/2000/svg" xmlns:xlink="http://www.w3.org/1999/xlink" viewBox="0 0 200 200"><defs><style>.cls-1{fill:url(#linear-gradient);}.cls-2{fill:url(#linear-gradient-2);}.cls-3{fill:url(#linear-gradient-3);}.cls-4{fill:url(#linear-gradient-4);}.cls-5{fill:url(#linear-gradient-5);}.cls-6{fill:url(#linear-gradient-6);}</style><linearGradient id="linear-gradient" x1="56.35" y1="108.29" x2="112.17" y2="72.41" gradientUnits="userSpaceOnUse"><stop offset="0" stop-color="#ee7623"/><stop offset="1" stop-color="#e2251d"/></linearGradient><linearGradient id="linear-gradient-2" x1="49.1" y1="97.02" x2="104.92" y2="61.13" xlink:href="#linear-gradient"/><linearGradient id="linear-gradient-3" x1="70.63" y1="130.51" x2="126.45" y2="94.62" xlink:href="#linear-gradient"/><linearGradient id="linear-gradient-4" x1="53.9" y1="104.49" x2="109.72" y2="68.6" xlink:href="#linear-gradient"/><linearGradient id="linear-gradient-5" x1="46.65" y1="93.21" x2="102.47" y2="57.33" xlink:href="#linear-gradient"/><linearGradient id="linear-gradient-6" x1="76.91" y1="140.27" x2="132.73" y2="104.39" xlink:href="#linear-gradient"/></defs><path class="cls-1" d="M77.67,106.1a3,3,0,0,1-2.88-2.17,26.45,26.45,0,0,1,5.67-23.06,3,3,0,1,1,4.6,3.84,20.43,20.43,0,0,0-4.49,17.59A3,3,0,0,1,78.49,106,2.94,2.94,0,0,1,77.67,106.1Z"/><path class="cls-2" d="M69.5,98.18c-2.49,0-6.64-.83-11.11-5.28-6.74-6.73-5.22-12.74-5-13.4l.46-1.56,1.55-.46c.66-.2,6.67-1.75,13.42,5s5.24,12.74,5,13.41l-.46,1.58-1.58.46A8.45,8.45,0,0,1,69.5,98.18ZM59.31,83.41a11.92,11.92,0,0,0,3.31,5.24A12.09,12.09,0,0,0,67.89,92a12,12,0,0,0-3.33-5.26A11.86,11.86,0,0,0,59.31,83.41Z"/><path class="cls-3" d="M90,153.62c-.23,0-.45,0-.68,0a12.94,12.94,0,0,1-4.94-1.69c-.46-.23-.91-.46-1.38-.66a9.81,9.81,0,0,0-7.32-.11c-.48.19-1,.43-1.52.69a12.82,12.82,0,0,1-5.64,1.64h-.06c-6,0-9.89-6.09-12.44-10.09l-.41-.64a41.67,41.67,0,0,1-6.32-15.43c-1.82-10.58,1.16-20.07,8-25.4,7.89-6.17,16.23-2.1,20.79.18,3.4-2,8.46-4.36,14.46-3.94,9.49.66,15.26,8.94,16.77,16.86a35.5,35.5,0,0,1-2.85,21.54h0A56.43,56.43,0,0,1,98.52,149C96.09,152,93,153.62,90,153.62Zm-10.79-9.16a15.61,15.61,0,0,1,6.16,1.26c.59.25,1.16.55,1.74.84a8.55,8.55,0,0,0,2.71,1.06c1.2.09,2.73-.81,4.06-2.42A50.85,50.85,0,0,0,101,134.08a29.64,29.64,0,0,0,2.42-18c-1.07-5.65-5-11.56-11.29-12-3.48-.25-7,.78-11.29,3.31a5.23,5.23,0,0,1-5.3.09c-6-3-10.38-4.15-14.55-.89-5,3.94-7.17,11.29-5.73,19.66a35.9,35.9,0,0,0,5.44,13.19l.42.66c1.75,2.73,4.67,7.3,7.43,7.32h0a8.22,8.22,0,0,0,3-1.05c.61-.29,1.24-.59,1.91-.86A15.69,15.69,0,0,1,79.21,144.46Zm24.48-9.15h0Z"/><path class="cls-4" d="M117.24,75.3a3,3,0,0,1-2.88-2.18A26.46,26.46,0,0,1,120,50.06a3,3,0,1,1,4.61,3.84,20.49,20.49,0,0,0-4.5,17.57,3,3,0,0,1-2.06,3.71A3,3,0,0,1,117.24,75.3Z"/><path class="cls-5" d="M109.06,67.37c-2.48,0-6.64-.83-11.11-5.29-6.74-6.72-5.22-12.73-5-13.39l.46-1.56L95,46.66c.66-.2,6.67-1.74,13.41,5s5.24,12.74,5,13.4L113,66.63l-1.58.46A8.31,8.31,0,0,1,109.06,67.37ZM98.87,52.58a11.89,11.89,0,0,0,3.32,5.25,11.91,11.91,0,0,0,5.26,3.31,11.93,11.93,0,0,0-3.33-5.25A12,12,0,0,0,98.87,52.58Z"/><path class="cls-6" d="M124.23,153.62a25.17,25.17,0,0,1-4.73-.45,11.21,11.21,0,0,0-4.12,0A25.3,25.3,0,0,1,105,153l-4.47-1,2.71-3.7a57.75,57.75,0,0,0,6-10.24,39.37,39.37,0,0,0,3.12-23.92c-1.62-8.54-6.78-15.45-13.81-18.48l-2-.87.26-2.63c.36-3.58.73-7.29,2.45-11.13A20.27,20.27,0,0,1,118.16,69.3,19.85,19.85,0,0,1,137.28,89a31.08,31.08,0,0,0,7.87,20.8h0a24.37,24.37,0,0,1,6.07,15.3,28.44,28.44,0,0,1-10.16,22.32A26.28,26.28,0,0,1,124.23,153.62ZM117.32,147a17.54,17.54,0,0,1,3.32.32,19.91,19.91,0,0,0,16.57-4.52,22.47,22.47,0,0,0,8-17.67,18.38,18.38,0,0,0-4.62-11.43A36.86,36.86,0,0,1,131.28,89,14,14,0,0,0,118,75.3a14.23,14.23,0,0,0-13.21,8.14A24.76,24.76,0,0,0,103,91.08c7.82,4.19,13.48,12.21,15.32,21.9a45.37,45.37,0,0,1-3.55,27.51,58.52,58.52,0,0,1-3.82,7.09,19.24,19.24,0,0,0,3.3-.34A16.05,16.05,0,0,1,117.32,147Z"/></svg>