<svg id="Layer_1" data-name="Layer 1" xmlns="http://www.w3.org/2000/svg" xmlns:xlink="http://www.w3.org/1999/xlink" viewBox="0 0 200 200"><defs><style>.cls-1{fill:url(#linear-gradient);}.cls-2{fill:url(#linear-gradient-2);}.cls-3{fill:url(#linear-gradient-3);}.cls-4{fill:url(#linear-gradient-4);}.cls-5{fill:url(#linear-gradient-5);}.cls-6{fill:url(#linear-gradient-6);}.cls-7{fill:url(#linear-gradient-7);}.cls-8{fill:url(#linear-gradient-8);}</style><linearGradient id="linear-gradient" x1="22.79" y1="99.08" x2="149.05" y2="57.88" gradientUnits="userSpaceOnUse"><stop offset="0" stop-color="#ee7623"/><stop offset="1" stop-color="#e2251d"/></linearGradient><linearGradient id="linear-gradient-2" x1="31.62" y1="126.15" x2="157.88" y2="84.95" xlink:href="#linear-gradient"/><linearGradient id="linear-gradient-3" x1="36.17" y1="140.09" x2="162.43" y2="98.89" xlink:href="#linear-gradient"/><linearGradient id="linear-gradient-4" x1="36.73" y1="141.83" x2="163" y2="100.63" xlink:href="#linear-gradient"/><linearGradient id="linear-gradient-5" x1="33.44" y1="131.72" x2="159.7" y2="90.52" xlink:href="#linear-gradient"/><linearGradient id="linear-gradient-6" x1="41.38" y1="156.06" x2="167.64" y2="114.86" xlink:href="#linear-gradient"/><linearGradient id="linear-gradient-7" x1="29.65" y1="120.11" x2="155.91" y2="78.91" xlink:href="#linear-gradient"/><linearGradient id="linear-gradient-8" x1="25.3" y1="106.78" x2="151.56" y2="65.58" xlink:href="#linear-gradient"/></defs><path class="cls-1" d="M62.58,100.22a3,3,0,0,1-2.81-1.94c-.23-.62-5.59-15.28,3.54-26.21a3,3,0,1,1,4.6,3.85c-6.86,8.22-2.56,20.13-2.52,20.25a3,3,0,0,1-2.81,4Z"/><path class="cls-2" d="M60.16,146.17C43.07,146.17,28.63,135,25,119c-1.76-7.77-.72-14,3.18-19.14C32.47,94.28,38.78,91.62,47,92a42.32,42.32,0,0,1,8.51,1.51l2,.5c.67.1,3.54.29,4.52.29C68,92.37,75,90.78,82.37,92.8a17.54,17.54,0,0,1,8.95,5.59l1.44,1.71L91.54,102c-15.06,23-15.64,24-22.94,41.84L68,145.36l-1.65.28c-1.06.17-2,.3-3,.38-.73.06-1.46.09-2.11.12l-.87,0Zm5.67-3.49ZM45.61,97.92c-5.62,0-9.77,1.84-12.64,5.6s-3.46,8.16-2.1,14.18c3,13.25,15,22.47,29.29,22.47h.08l.7,0c.58,0,1.23,0,1.87-.1l.89-.09c6.7-16.4,7.84-18.34,21.47-39.2a12.37,12.37,0,0,0-4.39-2.17c-6-1.64-11.84-.25-17.28,1.5-1.4.44-7-.18-7.31-.26L54,99.28a37.29,37.29,0,0,0-7.3-1.34Z"/><path class="cls-3" d="M74.74,161.49A6.08,6.08,0,0,1,70.45,160c-.93-.93-1.77-2.9-1.37-5.66.39-2.35,3.31-9.84,7.54-18.43l2.09-4.16c2.38-4.63,5-9.6,8.13-14.83,1.34-2.41,2.93-4.8,4.48-7.11l2.39-4a122.36,122.36,0,0,1,13.18-16.5l3.24-3.24c5.18-4.72,10.17-7.9,14.83-9.46a21.46,21.46,0,0,1,7.18-1.19c5.64,0,10.75,2.37,15.62,7.24,6.77,6.76,8.76,14.44,5.91,22.82h0c-2.64,7.68-9.17,15.74-19.39,24l-3.54,2.75c-4,3-8.08,5.74-11.62,8.06l-.1.06-4.1,2.45-.53.31c-.3.19-.6.38-.9.54-17.58,10.58-34.14,17.22-37.34,17.73A10.16,10.16,0,0,1,74.74,161.49Zm24-52.32-2.37,3.93c-1.58,2.37-3,4.58-4.29,6.81l0,.08c-3.06,5.1-5.63,10-8,14.5L82,138.61c-4.51,9.15-6.8,15.55-7,16.68a1.36,1.36,0,0,1,0,.2l.27,0c2-.35,17.75-6.46,35.22-17l.21-.12a5.64,5.64,0,0,0,.53-.31c.31-.19.61-.38.91-.54l3.76-2.25c3.44-2.26,7.42-4.9,11.2-7.77l3.48-2.7c9.15-7.35,15.19-14.69,17.44-21.19,2.1-6.2.67-11.48-4.48-16.64-3.69-3.69-7.41-5.48-11.38-5.48a15.56,15.56,0,0,0-5.23.87c-3.9,1.3-8.15,4-12.68,8.17l-3.07,3.06A116.35,116.35,0,0,0,98.72,109.17Zm52.11-4.61h0Z"/><path class="cls-4" d="M143.83,119.22a3,3,0,0,1-2.48-1.31l-10.43-15.28a3,3,0,0,1,5-3.38l10.42,15.28a3,3,0,0,1-2.47,4.69Z"/><path class="cls-5" d="M113.18,116a3,3,0,0,1-2.09-.85L99.77,104.24a3,3,0,1,1,4.17-4.32l11.32,10.94a3,3,0,0,1-2.08,5.16Z"/><path class="cls-6" d="M101.85,144.33A3,3,0,0,1,99.39,143l-5.67-8.15a3,3,0,1,1,4.93-3.42l5.67,8.15a3,3,0,0,1-2.47,4.71Z"/><path class="cls-7" d="M145.64,87.83a3,3,0,0,1-2.26-5c.48-.54,11.76-13.24,29.25-13.24h.2a3,3,0,0,1,0,6h-.18c-14.79,0-24.63,11.07-24.73,11.19A3,3,0,0,1,145.64,87.83Z"/><path class="cls-8" d="M145.64,87.83a3,3,0,0,1-2.13-5.11c7.18-7.24,25.8-28.76,25.73-41.2a3,3,0,0,1,3-3h0a3,3,0,0,1,3,3c.1,17.48-26.34,44.33-27.47,45.46A3,3,0,0,1,145.64,87.83Z"/></svg>