<svg id="Layer_1" data-name="Layer 1" xmlns="http://www.w3.org/2000/svg" xmlns:xlink="http://www.w3.org/1999/xlink" viewBox="0 0 200 200"><defs><style>.cls-1{fill:url(#linear-gradient);}.cls-2{fill:url(#linear-gradient-2);}</style><linearGradient id="linear-gradient" x1="56" y1="104.41" x2="144" y2="104.41" gradientUnits="userSpaceOnUse"><stop offset="0" stop-color="#ee7623"/><stop offset="1" stop-color="#e2251d"/></linearGradient><linearGradient id="linear-gradient-2" x1="95.35" y1="79.69" x2="104.65" y2="79.69" xlink:href="#linear-gradient"/></defs><path class="cls-1" d="M100,144A44.17,44.17,0,0,1,71.81,66a4.66,4.66,0,1,1,6,7.14h0a34.8,34.8,0,1,0,44.27,0,4.65,4.65,0,1,1,5.72-7.33,1.56,1.56,0,0,1,.2.16,44,44,0,0,1-28,78Z"/><path class="cls-2" d="M100,103.38a4.65,4.65,0,0,1-4.65-4.65V60.65a4.65,4.65,0,0,1,9.3,0V98.73A4.65,4.65,0,0,1,100,103.38Z"/></svg>