<svg id="Layer_1" data-name="Layer 1" xmlns="http://www.w3.org/2000/svg" xmlns:xlink="http://www.w3.org/1999/xlink" viewBox="0 0 200 200"><defs><style>.cls-1{fill-rule:evenodd;fill:url(#linear-gradient);}</style><linearGradient id="linear-gradient" x1="57.5" y1="100" x2="142.5" y2="100" gradientUnits="userSpaceOnUse"><stop offset="0" stop-color="#ee7623"/><stop offset="1" stop-color="#e2251d"/></linearGradient></defs><path class="cls-1" d="M129.75,57.5A12.75,12.75,0,0,1,142.5,70.25v59.5a12.75,12.75,0,0,1-12.75,12.75H70.25A12.75,12.75,0,0,1,57.5,129.75V70.25A12.75,12.75,0,0,1,70.25,57.5Zm0,8.5H70.25A4.25,4.25,0,0,0,66,70.25v59.5A4.25,4.25,0,0,0,70.25,134h59.5a4.25,4.25,0,0,0,4.25-4.25V70.25A4.25,4.25,0,0,0,129.75,66ZM83,108.5a4.25,4.25,0,0,1,4.25,4.25v8.5a4.25,4.25,0,0,1-8.5,0v-8.5A4.25,4.25,0,0,1,83,108.5Zm17-34a4.25,4.25,0,0,1,4.25,4.25v42.5a4.25,4.25,0,0,1-8.5,0V78.75A4.25,4.25,0,0,1,100,74.5Zm17,17a4.25,4.25,0,0,1,4.25,4.25v25.5a4.25,4.25,0,0,1-8.5,0V95.75A4.25,4.25,0,0,1,117,91.5Z"/></svg>