<svg id="Layer_1" data-name="Layer 1" xmlns="http://www.w3.org/2000/svg" xmlns:xlink="http://www.w3.org/1999/xlink" viewBox="0 0 200 200"><defs><style>.cls-1{fill-rule:evenodd;fill:url(#linear-gradient);}</style><linearGradient id="linear-gradient" x1="60" y1="100" x2="140" y2="100" gradientUnits="userSpaceOnUse"><stop offset="0" stop-color="#ee7623"/><stop offset="1" stop-color="#e2251d"/></linearGradient></defs><path class="cls-1" d="M128,104a12,12,0,0,1,12,12v12a12,12,0,0,1-12,12H116a12,12,0,0,1-12-12V116a12,12,0,0,1,12-12Zm-44,0a12,12,0,0,1,12,12v12a12,12,0,0,1-12,12H72a12,12,0,0,1-12-12V116a12,12,0,0,1,12-12Zm44,8H116a4,4,0,0,0-4,4v12a4,4,0,0,0,4,4h12a4,4,0,0,0,4-4V116A4,4,0,0,0,128,112Zm-44,0H72a4,4,0,0,0-4,4v12a4,4,0,0,0,4,4H84a4,4,0,0,0,4-4V116A4,4,0,0,0,84,112Zm0-52A12,12,0,0,1,96,72V84A12,12,0,0,1,84,96H72A12,12,0,0,1,60,84V72A12,12,0,0,1,72,60Zm44,0a12,12,0,0,1,12,12V84a12,12,0,0,1-12,12H116a12,12,0,0,1-12-12V72a12,12,0,0,1,12-12ZM84,68H72a4,4,0,0,0-4,4V84a4,4,0,0,0,4,4H84a4,4,0,0,0,4-4V72A4,4,0,0,0,84,68Zm44,0H116a4,4,0,0,0-4,4V84a4,4,0,0,0,4,4h12a4,4,0,0,0,4-4V72A4,4,0,0,0,128,68Z"/></svg>