<svg id="Layer_1" data-name="Layer 1" xmlns="http://www.w3.org/2000/svg" xmlns:xlink="http://www.w3.org/1999/xlink" viewBox="0 0 200 200"><defs><style>.cls-1{fill-rule:evenodd;fill:url(#linear-gradient);}</style><linearGradient id="linear-gradient" x1="60" y1="100" x2="140" y2="100" gradientUnits="userSpaceOnUse"><stop offset="0" stop-color="#ee7623"/><stop offset="1" stop-color="#e2251d"/></linearGradient></defs><path class="cls-1" d="M136,124a4,4,0,0,1,0,8H80a4,4,0,0,1,0-8Zm0-28a4,4,0,0,1,0,8H80a4,4,0,0,1,0-8Zm0-28a4,4,0,0,1,0,8H80a4,4,0,0,1,0-8ZM60,68h8v8H60Zm0,28h8v8H60Zm0,28h8v8H60Z"/></svg>