<svg id="Layer_1" data-name="Layer 1" xmlns="http://www.w3.org/2000/svg" xmlns:xlink="http://www.w3.org/1999/xlink" viewBox="0 0 200 200"><defs><style>.cls-1{fill-rule:evenodd;fill:url(#linear-gradient);}</style><linearGradient id="linear-gradient" x1="60" y1="100" x2="140" y2="100" gradientUnits="userSpaceOnUse"><stop offset="0" stop-color="#ee7623"/><stop offset="1" stop-color="#e2251d"/></linearGradient></defs><path class="cls-1" d="M128,68a12,12,0,0,1,12,12v40a12,12,0,0,1-12,12H72a12,12,0,0,1-12-12V80A12,12,0,0,1,72,68ZM68,100v20a4,4,0,0,0,4,4h56a4,4,0,0,0,4-4V100Zm0-16h64V80a4,4,0,0,0-4-4H72a4,4,0,0,0-4,4Z"/></svg>