<svg id="Layer_1" data-name="Layer 1" xmlns="http://www.w3.org/2000/svg" xmlns:xlink="http://www.w3.org/1999/xlink" viewBox="0 0 200 200"><defs><style>.cls-1{fill:url(#linear-gradient);}.cls-2{fill:url(#linear-gradient-2);}.cls-3{fill:url(#linear-gradient-3);}.cls-4{fill:url(#linear-gradient-4);}</style><linearGradient id="linear-gradient" x1="61.6" y1="104.98" x2="151.98" y2="90.36" gradientUnits="userSpaceOnUse"><stop offset="0" stop-color="#ee7623"/><stop offset="1" stop-color="#e2251d"/></linearGradient><linearGradient id="linear-gradient-2" x1="63.93" y1="119.36" x2="154.31" y2="104.74" xlink:href="#linear-gradient"/><linearGradient id="linear-gradient-3" x1="63.46" y1="116.47" x2="153.84" y2="101.85" xlink:href="#linear-gradient"/><linearGradient id="linear-gradient-4" x1="58.96" y1="88.68" x2="149.34" y2="74.06" xlink:href="#linear-gradient"/></defs><path class="cls-1" d="M33.57,129.56a3.73,3.73,0,0,1-1.18-.19,4.28,4.28,0,0,1-2.83-4.67l2.72-23.84-2.49-17.5a4.34,4.34,0,0,1,2.76-4.78,3.91,3.91,0,0,1,4.68,1.85c2.6,4.57,9.63,12.23,19.46,19.63,14.39-10.14,33.39-19,53.61-19,48,0,59.35,20.15,59.81,21l.75,1.4-.73,1.4c-.46.88-11.79,21.51-59.83,21.51-20.22,0-39.23-8.81-53.6-18.88-9.94,7.52-17.05,15.33-19.68,20A4,4,0,0,1,33.57,129.56Zm28.34-25.78c13.3,8.94,30.47,16.61,48.39,16.61,36.61,0,50-12.56,53.49-16.88-3.51-4.2-16.9-16.44-53.49-16.44C92.39,87.07,75.23,94.77,61.91,103.78ZM36.78,89.89l1.55,10.89-2,17.47a106.2,106.2,0,0,1,15.32-14.46A105.72,105.72,0,0,1,36.78,89.89Z"/><path class="cls-2" d="M122.06,125.93a3,3,0,0,1-2.66-1.62c-.33-.64-8.08-16,.13-28.93a3,3,0,1,1,5.07,3.21c-6.35,10,.07,22.84.13,23a3,3,0,0,1-2.67,4.37Z"/><path class="cls-3" d="M147.19,105.92c3.86,0,3.86-6,0-6s-3.87,6,0,6Z"/><path class="cls-4" d="M127.81,88.09a3,3,0,0,1-2.25-1h0c-.09-.09-7.84-8.8-17.33-10.42l2.28,6.48a3,3,0,0,1-5.66,2L101.63,76v-.51a5,5,0,0,1,1.62-3.69A5,5,0,0,1,107,70.45c12.72,1,22.66,12.19,23.08,12.67a3,3,0,0,1-2.26,5Z"/></svg>