<svg id="Layer_1" data-name="Layer 1" xmlns="http://www.w3.org/2000/svg" xmlns:xlink="http://www.w3.org/1999/xlink" viewBox="0 0 200 200"><defs><style>.cls-1{fill:url(#linear-gradient);}.cls-2{fill:url(#linear-gradient-2);}.cls-3{fill:url(#linear-gradient-3);}.cls-4{fill:url(#linear-gradient-4);}.cls-5{fill:url(#linear-gradient-5);}.cls-6{fill:url(#linear-gradient-6);}</style><linearGradient id="linear-gradient" x1="42.75" y1="108.75" x2="99.9" y2="47.61" gradientUnits="userSpaceOnUse"><stop offset="0" stop-color="#ee7623"/><stop offset="1" stop-color="#e2251d"/></linearGradient><linearGradient id="linear-gradient-2" x1="45.75" y1="111.56" x2="102.9" y2="50.42" xlink:href="#linear-gradient"/><linearGradient id="linear-gradient-3" x1="58.26" y1="123.25" x2="115.41" y2="62.11" xlink:href="#linear-gradient"/><linearGradient id="linear-gradient-4" x1="79.62" y1="143.22" x2="136.78" y2="82.08" xlink:href="#linear-gradient"/><linearGradient id="linear-gradient-5" x1="99.24" y1="161.56" x2="156.39" y2="100.42" xlink:href="#linear-gradient"/><linearGradient id="linear-gradient-6" x1="72.48" y1="136.54" x2="129.63" y2="75.4" xlink:href="#linear-gradient"/></defs><path class="cls-1" d="M83.58,82.8a13.22,13.22,0,0,1-9.25-4A19.06,19.06,0,0,1,69,67.55a18.66,18.66,0,0,1,3.38-13.73,12.33,12.33,0,0,1,17.85-2.27A18.57,18.57,0,0,1,96.93,64a18.62,18.62,0,0,1-3.37,13.7,12.75,12.75,0,0,1-8.43,5h0A11.53,11.53,0,0,1,83.58,82.8Zm1.16-3.08h0Zm-2.45-25a6.31,6.31,0,0,0-5.2,2.77,12.82,12.82,0,0,0-2.18,9.3,13.07,13.07,0,0,0,3.62,7.71,7.07,7.07,0,0,0,5.83,2.25A6.8,6.8,0,0,0,88.81,74a13.61,13.61,0,0,0-2.29-17.72A7,7,0,0,0,82.29,54.72Z"/><path class="cls-2" d="M66.6,106.15a12.3,12.3,0,0,1-7.94-3.09A18.69,18.69,0,0,1,54.1,81.8a11.26,11.26,0,0,1,18.2-3.9A17.82,17.82,0,0,1,78,87.78c1.82,8.52-2.3,16.65-9.19,18.14h0A10.81,10.81,0,0,1,66.6,106.15ZM68.17,103h0ZM64.39,80.8a4.58,4.58,0,0,0-1,.11,5.8,5.8,0,0,0-3.9,3.46,12.2,12.2,0,0,0-.69,7.54,11.87,11.87,0,0,0,3.72,6.58,5.84,5.84,0,0,0,5,1.56c3.6-.77,5.69-5.82,4.58-11a12.08,12.08,0,0,0-3.71-6.58A6.32,6.32,0,0,0,64.39,80.8Z"/><path class="cls-3" d="M111.31,82.8a12.59,12.59,0,0,1-1.5-.1h0a12.75,12.75,0,0,1-8.44-5A18.58,18.58,0,0,1,98,64c1.21-9.34,8.46-16.14,16.18-15.14a12.74,12.74,0,0,1,8.41,5A18.6,18.6,0,0,1,126,67.56,18.61,18.61,0,0,1,119.23,80,13,13,0,0,1,111.31,82.8Zm-.73-6a6.75,6.75,0,0,0,5-1.52A12.56,12.56,0,0,0,120,66.8a12.78,12.78,0,0,0-2.17-9.31,6.77,6.77,0,0,0-4.43-2.72c-4.46-.56-8.68,3.9-9.46,10A12.79,12.79,0,0,0,106.12,74a6.86,6.86,0,0,0,4.46,2.74Z"/><path class="cls-4" d="M127.81,106.15a10.86,10.86,0,0,1-2.19-.23c-6.91-1.49-11-9.62-9.21-18.14S125.34,73.56,132.25,75s11,9.6,9.2,18.12C139.81,100.77,134,106.15,127.81,106.15ZM130,80.8c-3.33,0-6.73,3.52-7.75,8.24-1.11,5.19,1,10.24,4.6,11s7.59-3,8.71-8.15-1-10.23-4.59-11h0A4.49,4.49,0,0,0,130,80.8Z"/><path class="cls-5" d="M127.51,151.28a20,20,0,1,1,20-20A20,20,0,0,1,127.51,151.28Zm0-33.92a14,14,0,1,0,14,14A14,14,0,0,0,127.51,117.36Z"/><path class="cls-6" d="M83.25,137.54a16.83,16.83,0,0,1-16.8-16.81,17,17,0,0,1,5.75-12.68c.73-.64,1.48-1.25,2.23-1.84,2.06-1.65,3.84-3.07,4.87-5.18a25.78,25.78,0,0,0,1.3-3.55,21,21,0,0,1,3.19-6.88,16.87,16.87,0,0,1,13.26-6.49h.3a16.93,16.93,0,0,1,13.29,6.49,21,21,0,0,1,3.15,6.83,25.73,25.73,0,0,0,1.32,3.58c1,2.13,2.81,3.55,4.87,5.2l.49.39a3,3,0,0,1-3.77,4.68l-.48-.39c-2.39-1.92-4.87-3.91-6.49-7.23a29.68,29.68,0,0,1-1.66-4.43,15.91,15.91,0,0,0-2.18-5,10.85,10.85,0,0,0-8.46-4.17H97a10.81,10.81,0,0,0-8.44,4.17,15.87,15.87,0,0,0-2.2,5,30.56,30.56,0,0,1-1.64,4.38c-1.62,3.33-4.11,5.31-6.51,7.24-.68.54-1.36,1.08-2,1.67a11,11,0,0,0-3.69,8.16,10.81,10.81,0,0,0,10.8,10.81,10.65,10.65,0,0,0,5.67-1.62c2.6-1.61,4.79-1.65,7.11-1.69l1.08,0h.18l1.09,0c2.32,0,4.52.07,7.11,1.69a3,3,0,1,1-3.18,5.09c-1.11-.7-1.91-.75-4-.78l-1.08,0-1.07,0c-2.12,0-2.91.08-4,.78A16.67,16.67,0,0,1,83.25,137.54ZM96.91,90.1h0Z"/><path class="cls-5" d="M127.51,139.35a3,3,0,0,1-3-3V126.29a3,3,0,1,1,6,0v10.06A3,3,0,0,1,127.51,139.35Z"/><path class="cls-5" d="M132.54,134.32H122.48a3,3,0,0,1,0-6h10.06a3,3,0,1,1,0,6Z"/></svg>