<svg id="Layer_1" data-name="Layer 1" xmlns="http://www.w3.org/2000/svg" xmlns:xlink="http://www.w3.org/1999/xlink" viewBox="0 0 200 200"><defs><style>.cls-1{fill-rule:evenodd;fill:url(#linear-gradient);}</style><linearGradient id="linear-gradient" x1="78.63" y1="100" x2="149.63" y2="100" gradientUnits="userSpaceOnUse"><stop offset="0" stop-color="#ee7623"/><stop offset="1" stop-color="#e2251d"/></linearGradient></defs><path class="cls-1" d="M110.7,64.5h6.94a5.57,5.57,0,0,1,.91.12l.77.19c1.78.52,2.62,1.45,4.26,5.24l.7,1.67.73,1.8,1.7-.76c3.38-1.47,4.92-1.93,6.13-1.93A5.68,5.68,0,0,1,136.32,72l.47.41,4.68,4.67.68.73c1.25,1.47,1.53,2.64.65,5.42l-.49,1.41-.66,1.68L140.56,89l2.62,1c4.08,1.59,5.28,2.42,5.94,4.07l.12.32.21.71a4.55,4.55,0,0,1,.17,1v7.1a5.13,5.13,0,0,1-.16,1.44c-.56,2.27-1.19,3.07-5.44,4.9l-.84.36-2.56,1,.79,1.75c2.44,5.45,2.69,7,1.2,9l-.24.29-.54.62L137,127.33a5.66,5.66,0,0,1-4,1.64,10.26,10.26,0,0,1-3.07-.66l-.7-.25-1.64-.62-2.47-1-.69,1.84c-1.84,4.8-2.65,6.08-4.43,6.76l-.33.12-.68.19a4.88,4.88,0,0,1-1,.16h-7.45a5.6,5.6,0,0,1-.9-.12c-2-.45-2.95-1-4.39-4l-.31-.68-.7-1.62-1.06-2.6-1.7.76c-3.39,1.47-4.93,1.93-6.14,1.93A5.72,5.72,0,0,1,91.93,128l-.47-.42-4.83-4.83c-1.81-1.92-2.26-2.94-1-6.61l.28-.77.65-1.66,1.1-2.63-1.81-.68c-4.73-1.81-6-2.64-6.75-4.4l-.12-.32-.21-.71a4.94,4.94,0,0,1-.16-1v-7.1a5.24,5.24,0,0,1,.16-1.45c.5-2,1-2.83,4-4.22l.72-.34,1.59-.68,2.56-1-.79-1.76c-2.67-6-2.7-7.44-.55-9.72l.31-.32,4.66-4.64a5.64,5.64,0,0,1,4-1.63,11.81,11.81,0,0,1,3.78.9l.79.3,1.6.63,1.71.71,1-2.67c1.64-4.18,2.49-5.38,4.24-6l.33-.11.71-.18a4.3,4.3,0,0,1,.86-.12h.44Zm4.61,8.87h-2.58l-.39,1-.47,1.19L110.56,79a4.42,4.42,0,0,1-2,2.3l-.46.22-2.83,1.18a4.45,4.45,0,0,1-2.88.18l-.56-.19-2.94-1.25-1.46-.59-1.33-.51L94.3,82.17l.9,2.12,1.54,3.38a4.45,4.45,0,0,1,.27,3l-.19.58L95.66,94a4.4,4.4,0,0,1-2,2.22l-.46.22-3.53,1.41-1.2.51-1,.42v2.63l.45.18,1.69.67,3.45,1.29a4.38,4.38,0,0,1,2.36,2l.24.48,1.15,2.8a4.44,4.44,0,0,1,.17,2.9l-.2.56-1.49,3.5L94.45,118l1.83,1.83,1.15-.48,2.21-1,2.08-1a4.44,4.44,0,0,1,3.1-.27l.51.17,2.84,1.18a4.5,4.5,0,0,1,2.25,2.05l.21.47,1.39,3.46.93,2.16h2.59l.39-1,.46-1.19L117.7,121a4.4,4.4,0,0,1,2-2.32l.47-.22,2.83-1.17a4.41,4.41,0,0,1,2.84-.19l.56.19,2.14.91,2.28.94,1.33.51,1.83-1.82-.19-.45-1-2.34-1.25-2.71a4.38,4.38,0,0,1-.26-3l.19-.59,1.15-2.79a4.44,4.44,0,0,1,2-2.21l.46-.22,3.54-1.43,2.17-.93V98.58l-.45-.19-1.7-.67-3.46-1.28a4.42,4.42,0,0,1-2.35-2l-.23-.48-1.16-2.81a4.41,4.41,0,0,1-.16-2.89l.2-.56,1.48-3.5L133.8,82,132,80.18l-.54.23-2,.87-2.93,1.33a4.45,4.45,0,0,1-3,.27l-.58-.2-2.84-1.16a4.51,4.51,0,0,1-2.23-2l-.21-.47-1.13-2.81-.79-1.9Zm-1.18,17.75a8.88,8.88,0,1,1-8.88,8.88A8.88,8.88,0,0,1,114.13,91.12Z"/></svg>