<svg id="Layer_1" data-name="Layer 1" xmlns="http://www.w3.org/2000/svg" xmlns:xlink="http://www.w3.org/1999/xlink" viewBox="0 0 200 200"><defs><style>.cls-1{fill-rule:evenodd;fill:url(#linear-gradient);}</style><linearGradient id="linear-gradient" x1="60" y1="100" x2="140" y2="100" gradientUnits="userSpaceOnUse"><stop offset="0" stop-color="#ee7623"/><stop offset="1" stop-color="#e2251d"/></linearGradient></defs><path class="cls-1" d="M80,116h40a20,20,0,0,1,20,20,4,4,0,0,1-8,.47l-.05-1.18A12,12,0,0,0,120.71,124l-.71,0H80a12,12,0,0,0-12,12,4,4,0,0,1-8,0,20,20,0,0,1,19.13-20l.87,0h0Zm20-56A24,24,0,1,1,76,84,24,24,0,0,1,100,60Zm0,8a16,16,0,1,0,16,16A16,16,0,0,0,100,68Z"/></svg>