<svg id="Layer_1" data-name="Layer 1" xmlns="http://www.w3.org/2000/svg" xmlns:xlink="http://www.w3.org/1999/xlink" viewBox="0 0 200 200"><defs><style>.cls-1{fill-rule:evenodd;fill:url(#linear-gradient);}</style><linearGradient id="linear-gradient" x1="60" y1="100" x2="140" y2="100" gradientUnits="userSpaceOnUse"><stop offset="0" stop-color="#ee7623"/><stop offset="1" stop-color="#e2251d"/></linearGradient></defs><path class="cls-1" d="M85,110h30a25,25,0,0,1,25,25,5,5,0,0,1-10,.58l-.06-1.46A15,15,0,0,0,115.88,120l-.88,0H85a15,15,0,0,0-15,15,5,5,0,0,1-10,0,25,25,0,0,1,23.92-25L85,110h0Zm15-50A25,25,0,1,1,75,85,25,25,0,0,1,100,60Zm0,10a15,15,0,1,0,15,15A15,15,0,0,0,100,70Z"/></svg>